<svg xmlns="http://www.w3.org/2000/svg" viewBox="0 0 782 830">
  <path d="M462.63,0h15.74a645.955,645.955,0,0,1,68.37,4.7c20.64,2.51,41.1,6.35,61.49,10.4,23.2,4.86,46.22,11.16,67.95,20.75,8.15,3.77,17.33,8.05,21.48,16.51,2.37,6.16,2.96,12.82,3.54,19.34q5.595,77.685,11.26,155.37c1.22,8.2-13.37,10.81-15.89,3.38-14.38-35.82-33.63-69.91-58.59-99.47a286.01,286.01,0,0,0-81.77-67.19c-39.22-21.33-83.8-31.76-128.28-32.91-41.63-1.07-83.9,4.04-122.94,19.05a237.733,237.733,0,0,0-81.23,51.79c-23.31,22.59-42.11,49.62-56.33,78.74-14.83,30.75-24.55,63.8-30.1,97.44-7.01,41.92-7.85,84.68-5.31,127.05,3.3,53.15,13.29,106.12,32.08,156.04,24.13,64.2,62.96,123.83,116.38,167.41,30.52,24.96,65.29,44.86,102.65,57.59,40.29,13.95,83.23,19.52,125.77,18.21,18.51-.67,37.19-2.58,54.85-8.44,12.7-4.22,24.7-11.3,33.34-21.67,12.1-13.96,18.07-32.02,21.52-49.89,4.66-24.77,5.56-50.08,5.51-75.23-.31-23.6-1.18-47.4-6.39-70.5-3.63-14.5-9.07-29.44-20.43-39.73-11.65-11.05-27.76-15.3-43.2-17.79-25.86-4.06-52.12-4.65-78.25-4.75-3.34.36-5.93-2.45-6.36-5.57-.69-4.24-.93-9,1.16-12.9.9-2.1,3.34-2.06,5.26-1.93,54.96,3.49,109.99,6.1,165.07,6.33q67.065-.045,134.05-3.8c2.11-.32,4.4.18,5.5,2.2,1.26,2.74,1.21,5.87,1.47,8.83v2.36c-.31,2.04-1.37,4.79-3.93,4.36-9.57-.28-20.65-.22-27.83,7.14-7.22,7.63-8.7,18.65-9.95,28.65-2.42,25.63-2.05,51.42-2.17,77.14.14,34.02-.57,68.1,2.04,102.05,1.11,16.08,5.41,31.81,5.71,47.97-.04,4.13-.54,8.98-4.13,11.66-4.43,3.17-9.95,4.02-15.14,5.18-83.27,18.39-167.94,31.9-253.32,34.13H448.89c-44.93-.67-89.95-5.39-133.61-16.27a444.177,444.177,0,0,1-105.56-40.45,416.942,416.942,0,0,1-86.1-61.89,379.886,379.886,0,0,1-70.37-89.58A407,407,0,0,1,12.19,516.8C4.68,485.86,1.11,454.08,0,422.29V399.06c1.37-47.1,10.18-94.19,28.27-137.8,19.92-48.78,51-92.6,88.71-129.25C176.75,73.74,253.72,34.68,334.6,15.37,376.5,5.33,419.58.6,462.63,0Z" fill="#272727"/>
</svg>
