<svg xmlns="http://www.w3.org/2000/svg" viewBox="0 0 391.114 71.03">
  <g fill="#fff">
    <path d="M196.7.727c1.04-1.39,2.78-.4,4.13-.18a34.2,34.2,0,0,1,6.58,2.62c-6.87,1.83-13.4,4.63-20,7.21C190.254,6.927,193.564,3.907,196.7.727Z" />
    <path d="M344.284,12.217c.7.81,1.39,1.63,2.09,2.45,13.23.95,26.51.45,39.76.2,2.17.3,3.55-1.5,4.98-2.78-.74,6.47,0,13.16-1.39,19.52-.71-5.95-3.49-12.57-9.85-14.23-2.58-.46-7.94-1.67-7.73,2.44-.51,13.38.16,26.77-.07,40.16.16,2.56-.52,5.53,1.11,7.75,2.57,1.51,5.78.64,8.44,1.98-9.2.4-18.45-.14-27.66.25v-.98c3.11-.32,8.45.42,8.38-4.11.28-14.3.02-28.61.13-42.91-.02-1.69.12-4.01-1.86-4.66-5.48-1.69-11.04,1.77-13.98,6.26-1.83,2.44-2.12,5.59-3.71,8.15C343.254,25.207,343.854,18.717,344.284,12.217Z" />
    <path d="M12.474,19.417c10.47-6.72,24.22-6.88,35.6-2.53a80.266,80.266,0,0,1,.81,14.37c-2.93-4.94-6.02-10.16-11.31-12.88-6.76-3.52-16.11-3.09-21.51,2.69-5.85,6.33-6.37,15.65-5.33,23.79,1.16,9.59,6.67,19.55,16.14,23,3.39,1.53,7.61.34,10.47,3.08-8.62.37-17.85-.18-25.18-5.24-8.53-5.42-12.87-15.92-12.07-25.82A26.252,26.252,0,0,1,12.474,19.417Z" />
    <path d="M222.234,25.257c9.68-12.19,28.04-13.93,41.65-8.15.93,4.65.67,9.47.94,14.19-2.99-4.67-5.92-9.74-11.04-12.39-6.59-3.89-16.27-3.67-21.58,2.3-4.37,5.16-5.37,12.22-5.36,18.76.13,9.13,3.08,18.79,10.08,25,4.36,4.08,11.35,5.74,16.72,2.71,5.23-2.78,8.4-7.97,11.64-12.7a85.535,85.535,0,0,1-.57,12.99,50.261,50.261,0,0,1-26.17,2.19c-8.64-1.67-16.66-7.63-19.77-16.01C215.1,44.787,215.774,33.257,222.234,25.257Z" />
    <path d="M64.844,14.937c12.93.02,25.85-.04,38.78.03.07,4.47.24,8.93.07,13.4-1.85-2.82-3-6.23-5.82-8.28-4.41-3.6-10.69-4.01-16.01-2.68-.26.4-.77,1.18-1.03,1.57-.79,6.99-.17,14.06-.37,21.08,5.37-.31,10.92.74,16.16-.72,3.13-.88,3.37-4.53,4.35-7.06.87,3.16.16,6.45.29,9.67-.07,3.2.56,6.47-.32,9.6-.93-3.09-1.58-6.86-4.98-8.21-5.01-1.5-10.35-.48-15.5-.77.03,6.79-.06,13.59.03,20.38.05,1.79.26,4.44,2.46,4.81,5.86.9,12.45.38,17.15-3.61,3.26-2.27,4.83-6,7.33-8.93-.2,4.89-.8,9.75-.83,14.65-13.88.16-27.76.03-41.64.07v-.87c1.79-.35,3.91-.16,5.37-1.45.76-2.12.62-4.41.65-6.62-.1-13.7.1-27.41-.1-41.11.22-3.41-3.54-3.91-6.09-4.12Z" />
    <path d="M118.034,14.987c5.63-.19,11.27.57,16.91.01,6.17-.53,12.86-.72,18.45,2.37a9.392,9.392,0,0,1,4.65,9.57c-.54,5.32-4.8,9.22-8.99,12.03,5.65,9.11,11.04,18.63,18.86,26.11,2.49,2.64,6.15,3.36,9.33,4.78-5.39.1-10.8.2-16.18-.03-3-1.51-4.82-4.51-6.87-7.05a160.7,160.7,0,0,1-12.38-21.14,64.643,64.643,0,0,1-6.8.53c.26,7.84-.16,15.7.2,23.54.44,3.62,4.83,2.81,7.32,3.96-8.37.36-16.82.15-25.21.12,2.09-.91,4.42-.97,6.54-1.75,1.53-1.11,1.45-3.37,1.6-5.08V21.937c-.03-1.81-.03-3.95-1.6-5.17-1.93-.65-4.08-.64-5.83-1.78m17.27,3.99c-.47,6.9-.14,13.83-.18,20.75,3.9.07,8.68.25,11.3-3.23,2.18-3.39,2.05-7.72,1.59-11.57-.46-3.79-2.95-7.78-7.01-8.32C138.924,16.507,135.384,16.027,135.3,18.977Z" />
    <path d="M182.184,14.987c7.91.17,15.82.22,23.73-.02-1.76,1.08-3.87,1.15-5.72,1.97-1.61,1.96-1.11,4.69-1.25,7.04.16,13.95-.23,27.92.19,41.86.37,3.39,4.63,2.5,6.76,4.04-7.89-.08-15.8-.02-23.7-.02,2.22-1.58,6.49-.39,6.85-3.94.42-13.97.03-27.99.19-41.98-.09-2.31.26-4.99-1.27-6.93C186.124,16.067,183.954,16.077,182.184,14.987Z" />
    <path d="M275.7,15.307c3.4-.76,6.89-.03,10.33-.12,4.43.18,8.88-.55,13.31-.05-1.75.71-3.62,1.02-5.42,1.57-1.6.84-1.44,2.92-1.66,4.45-.13,6.29-.01,12.59-.05,18.89,8.42.04,16.83,0,25.25.02-.18-7.03.36-14.09-.28-21.09-.64-3.24-4.45-2.65-6.78-3.87,4.19-.44,8.39.23,12.58.09,3.76.07,7.54-.56,11.29-.05-1.97.82-4.19.94-6.08,1.95-1.14,1.7-1.12,3.87-1.22,5.84-.03,12.98.01,25.96-.02,38.94.06,2.05-.08,4.35,1.34,6.03,2.01.83,4.19,1.05,6.23,1.8-8,.21-16.06.21-24.05.04,2.02-.82,4.25-.92,6.24-1.82.96-1.84.83-3.96.88-5.96q-.015-9.7,0-19.42c-8.47.01-16.93.03-25.39,0q.03,9.705,0,19.41c.05,1.95-.05,4.04.94,5.81,2,1.07,4.36,1.1,6.43,2.03-4.55.34-9.1-.14-13.66.01-3.43-.17-6.93.54-10.32-.27,2-.61,4.12-.79,6.08-1.56a10.55,10.55,0,0,0,.92-4.99q-.015-20.535.01-41.08a13.921,13.921,0,0,0-.85-4.94C279.754,16.357,277.7,15.927,275.7,15.307Z" />
    <path d="M30.664,48.417c7.9-.46,15.85.43,23.78-.21-1,1.19-3.04,1.92-2.8,3.78a121.779,121.779,0,0,0,.43,16.21c-4.54,1.4-9.29,1.86-13.97,2.56-.76-.59-1.52-1.18-2.28-1.75,2.71.26,5.55-1.38,6.01-4.17.79-4.11,1.07-8.58-.38-12.58C39.354,48.2,33.894,50.687,30.664,48.417Z" />
  </g>
</svg>
