<svg xmlns="http://www.w3.org/2000/svg" viewBox="0 0 291.99 292">
  <g>
    <g>
      <path d="M133.19,0h12.65c3.45.69,7.1,1.97,9.23,4.95a11.967,11.967,0,0,1-2.61,16.5c-5.33,4.52-12.65,2-18.92,2.56.88-.77,3.12-.56,2.99-2.1.14-7.05.29-14.12-.2-21.16-.79-.19-2.36-.56-3.14-.75m7.82,1.11c-.53,5.28-.17,10.59-.29,15.88.09,1.93-.21,3.98.58,5.8,4.01,2.11,9.34-.67,10.54-4.92,1.84-5.34,1.04-12.49-3.91-15.93C145.93.44,143.32.87,141.01,1.11Z" fill="#dcca87"/>
      <path d="M179.85,4.88c-.64-.51-1.27-1.02-1.91-1.53,5.29,1.8,10.71,3.18,16.03,4.88-.52,1.96-1.03,3.92-1.45,5.91-.08-4.47-3.79-7.27-7.9-7.95-1.6,3.01-2.35,6.36-3.38,9.58,3.26,1.1,7.63,3.35,9.88-.58-.98,2.63-1.77,5.32-2.53,8.02.63-4.64-4.22-5.42-7.6-6.25a100.589,100.589,0,0,0-2.82,10.05c3.56,3.45,9.42,1.86,12.61-1.49-.83,2.01-1.59,4.05-2.3,6.1-5.92-1.74-11.78-3.66-17.78-5.08,1.05-.12,2.09-.23,3.14-.34C175.94,19.12,178.39,12.12,179.85,4.88Z" fill="#dcca87"/>
      <path d="M58.78,28.49c4.85-3.2,9.68-6.42,14.65-9.43,1.03,1.63,2.09,3.25,3.14,4.87-3.51-2.78-7.97-1.63-11.03,1.17a79.151,79.151,0,0,0,5.28,8.57c2.63-1.82,6.48-3.14,6.52-6.95a49.393,49.393,0,0,0,3.92,6.3c-1.04-.64-2.1-1.25-3.17-1.83-2.6.27-4.6,2.16-6.77,3.42,2.13,3.07,3.83,6.47,6.45,9.19,1.97-1.44,4.39-2.62,5.46-4.95.97-1.86.81-4.02,1-6.05.99,1.93,2.03,3.84,3.08,5.74-5.14,3.27-10.16,6.71-15.4,9.81.43-.55,1.3-1.66,1.74-2.21-3.7-6.31-7.74-12.41-11.79-18.5C60.84,27.93,59.81,28.21,58.78,28.49Z" fill="#dcca87"/>
      <path d="M217.17,18.79c2.94,1.83,5.8,3.79,8.72,5.66-1.01-.29-2-.6-2.99-.91-4.2,6.04-8.14,12.26-11.89,18.58a10.427,10.427,0,0,0,13.25,1.5c-1.32,1.85-2.64,3.69-3.88,5.6-5.43-3.17-10.47-6.99-16.01-9.97,3.17,1.53,4.5-1.9,5.91-4,2.88-4.76,6.15-9.28,8.82-14.17C218.62,20.51,217.65,19.37,217.17,18.79Z" fill="#dcca87"/>
      <path d="M41.76,41.9c1.82,1.77,3.66,3.51,5.42,5.35-3.24-1.87-7.46-1.57-9.53,1.85,5.18,5.19,10.99,9.71,16.52,14.52,1.05-.65,2.1-1.31,3.15-1.96-1.99,2.41-4.13,4.69-5.89,7.28-.14-3.32-3.36-4.74-5.43-6.8-3.76-3.02-7.07-6.65-11.16-9.23-3.81,2-2.74,7.04-.97,10.08a56.368,56.368,0,0,0-5.54-5.39c3.48-2.14,5.78-5.59,8.48-8.55C38.61,46.79,40.89,44.74,41.76,41.9Z" fill="#dcca87"/>
      <path d="M253.12,47.41a93.842,93.842,0,0,0,6.04,7.32c-.6-.31-1.79-.93-2.39-1.24-5.55,4.68-11.34,9.2-16.4,14.39.16.66.47,1.98.62,2.63-1.94-2.73-4.25-5.16-6.43-7.69.66.41,1.98,1.24,2.65,1.65,5.63-4.6,11.28-9.26,16.43-14.37C253.51,49.43,253.25,48.08,253.12,47.41Z" fill="#dcca87"/>
      <path d="M255.04,89.99c.17-8.1,10.07-14.22,17.29-10.21,5.47,2.61,8.06,8.61,8.88,14.31-1.85,1.05-3.69,2.12-5.55,3.14,1.48-2.82,3.52-5.81,2.71-9.18a7.551,7.551,0,0,0-9.35-6.09c-6.99,1.28-14.45,8.35-11.32,15.92,1.14,4.58,6.11,1.62,8.65.03-.37-1.68-.78-3.34-1.07-5.04,1.42,2.9,2.7,5.87,4.23,8.72a32.037,32.037,0,0,0-8.22,3.49C258.23,100.58,254.74,95.71,255.04,89.99Z" fill="#dcca87"/>
      <path d="M11.19,89.06a76.217,76.217,0,0,0,4.45-9.35c-.11.82-.31,2.47-.41,3.29,6.54,3.29,13.23,6.32,19.98,9.16.5-.59,1.51-1.78,2.01-2.38-1.33,3.12-2.79,6.19-3.93,9.38,0-.72.02-2.16.02-2.88C26.82,93,20.18,90,13.47,87.18,12.71,87.81,11.96,88.44,11.19,89.06Z" fill="#dcca87"/>
      <path d="M287.43,116.41c.11-.76.32-2.28.43-3.04.49,3.41,1,6.81,1.55,10.21q-.705-1.35-1.38-2.7c-3.28.32-6.55.76-9.81,1.2a106.008,106.008,0,0,0,1.69,11.07c2.52-.87,5.23-.82,7.79-1.47,1.13-.4,1.51-2.61,2.78-2.28.57,2.34.05,5,1.51,7.09v1.35c-.93-.65-1.86-1.28-2.78-1.93-6.89.99-13.8,1.86-20.65,3.04-.21,1.13-.41,2.27-.61,3.4-.49-3.55-.98-7.09-1.62-10.61.39.75,1.19,2.25,1.58,3,3.59-.44,7.16-.96,10.74-1.48-.51-3.65-1.05-7.3-1.54-10.96-3.62.53-7.24,1.02-10.83,1.71-.25,1.09-.5,2.19-.75,3.29a56.3,56.3,0,0,0-1.48-10.57l1.74,2.91C273.01,118.62,280.27,117.78,287.43,116.41Z" fill="#dcca87"/>
      <path d="M12.18,123.77c1.15-2.87,3.43-6.11,6.92-5.8,4.31.23,6.79,5.1,6.31,9.01-.53,3.94-1.36,7.83-1.85,11.78-.11-.75-.33-2.25-.44-3.01a160.4,160.4,0,0,0-21.67-3.1L0,135.37c1.65-5.21-.36-12.26,4.32-16.2,3.45-2.21,7.07,1.26,7.86,4.6M1.85,127.91c3.21.65,6.46,1.1,9.71,1.47,1.4-4.47-3.56-7.96-7.55-6.29-2.1.63-2.01,3.06-2.16,4.82m10.48,1.64c3.72.28,7.55,1.68,11.23,1.1,2.38-2.86.41-8.07-3.61-8.03C15.54,121.34,12.13,125.38,12.33,129.55Z" fill="#dcca87"/>
      <path d="M284.33,155.4a32.475,32.475,0,0,1,7.66,1.8v.5c-.19-.1-.56-.3-.74-.4-1.13,5.19-1.92,10.45-2.53,15.72a9.694,9.694,0,0,0,.49,4.49c-2.79-.69-5.63-1.21-8.47-1.63,1.85-.45,3.97-.39,5.52-1.63,1.67-1.21,1.72-3.43,2.24-5.24-6.84-1.08-13.68-2.19-20.56-2.94-2.17-.51-1.96,2.71-2.87,3.8a61.233,61.233,0,0,0,1.18-12.29c.72,1.56.51,4.39,2.85,4.3,6.79.95,13.55,2.36,20.42,2.58C289.75,160.54,287.44,157.45,284.33,155.4Z" fill="#dcca87"/>
      <path d="M32.35,191.29c1.35,3.6,3.6,6.87,4.48,10.64a21.93,21.93,0,0,1-2.31-2.79c-3.25,1.38-6.93,2.38-9.65,4.66-2.56,4.29-6.11,8.22-7.17,13.22a76.954,76.954,0,0,0-3.78-8.14c.52.4,1.56,1.19,2.08,1.58,2.04-3.27,4.13-6.51,6.12-9.8-3.25.19-6.93-1.19-9.94.34-.16.82-.47,2.46-.63,3.28a39.8,39.8,0,0,0-2.81-7.32c3.99,3.02,9.31,2.28,14.01,2.51a68.157,68.157,0,0,0,10.01-4.52C32.66,194.03,32.45,192.21,32.35,191.29Z" fill="#dcca87"/>
      <path d="M42.16,233.18c1.58-5.81,4.43-11.98,2.26-18.01A62.32,62.32,0,0,1,48.99,221c-.18,4.89-2.44,9.34-3.8,13.95.45.53,1.36,1.58,1.82,2.11a104.281,104.281,0,0,0,8.48-7.66c-.37-.68-1.11-2.02-1.48-2.7,2.57,2.56,4.77,5.46,7.21,8.14-1.21-.54-2.82-2.5-4.07-.94-5.14,4.33-10.28,8.7-15.21,13.27.35,1.1.72,2.19,1.12,3.27-2.94-4.6-8.76-7.7-9.36-13.49.24-4.23,5.29-4.61,8.46-3.77m-3.47,10.99c2.6-2.06,5.05-4.27,7.6-6.39-1.09-1.38-2.37-3.15-4.37-2.95C37.91,235.69,34.1,241.32,38.69,244.17Z" fill="#dcca87"/>
      <path d="M233.75,230.17a74.851,74.851,0,0,0,6.21-7.44c-.16.77-.47,2.31-.63,3.09,5.55,4.68,10.8,9.74,16.62,14.11.6-.48,1.79-1.42,2.39-1.89-2.09,2.96-4.68,5.51-6.97,8.31.41-1.2,2.1-2.93.5-3.97-5.18-4.51-10.18-9.3-15.72-13.37Z" fill="#dcca87"/>
      <path d="M213.75,246.77a52.25,52.25,0,0,0,7.89-4.83c-1.26,1.54-2.62,3.64-1.25,5.57,2.97,5.06,6.37,9.85,9.36,14.91l4.74-.15q-3,1.785-5.88,3.75c-7.15-2.5-14.3-5.02-21.52-7.3,2.56,4.15,5,8.4,7.88,12.33,1.36,1.73,3.57.79,5.32.43a87.359,87.359,0,0,0-8.25,5.21c1.01-1.5,2.8-3.27,1.51-5.17-3.43-6.34-7.95-12.03-11.3-18.42,8.66,2.34,16.96,5.8,25.55,8.37-2.94-4.49-5.62-9.16-8.73-13.52C217.88,246.05,215.6,246.56,213.75,246.77Z" fill="#dcca87"/>
      <path d="M68.3,248.9c1.28-1.69,2.52-3.4,3.74-5.13,4.59,2.59,8.72,5.91,13.45,8.25A215.914,215.914,0,0,0,72.83,271.7c.76.78,1.52,1.57,2.27,2.38-5.05-3.03-9.9-6.37-14.91-9.46,1.01-1.62,2.03-3.25,3.05-4.87a7.9,7.9,0,0,0,5.75,9.18c2.39-2.33,3.76-5.44,5.57-8.19-3.01-1.57-6.44-5.61-9.63-1.93,1.72-2.34,3.29-4.79,4.83-7.25-2.23,4.35,2.47,6.52,5.43,8.42,1.91-3.11,3.99-6.12,5.7-9.35A9.982,9.982,0,0,0,68.3,248.9Z" fill="#dcca87"/>
      <path d="M109.99,262.04c2.38,8.12,2.51,16.73,4.28,25a14.206,14.206,0,0,0,1.91,2.61,69.845,69.845,0,0,0-9.53-2.9c2.31.36,3.31-.5,2.98-2.58-.73-5.51-1.51-11.02-2.4-16.5q-4.785,6.1-9.24,12.48c-1.68,1.98,1.02,3.64,2.21,4.92a25.362,25.362,0,0,0-9.06-2.47c1.77-.54,3.88-.75,5.04-2.38C100.88,274.24,105.24,267.98,109.99,262.04Z" fill="#dcca87"/>
      <path d="M136.46,268c6.26.04,12.54-.15,18.81.21-1.08.26-2.15.51-3.22.78-.25,6.68-.09,13.38-.12,20.07-.23,1.86,1.77,2.27,3.03,2.94H138.92c-2.44-.58-.87-3.89-1.42-5.69,1.83,3.57,6.05,6.38,10,4.34a71.2,71.2,0,0,0,.24-9.69c-3.38.08-7.96-.87-9.17,3.31a58.522,58.522,0,0,0-.06-8.27c.8,1.24,1.22,2.98,2.65,3.64a45.243,45.243,0,0,0,6.59.29c.01-3.65.02-7.3-.18-10.95-2.26-.08-4.7-.53-6.79.58-2.15,1.01-3.43,3.09-4.85,4.88C136.13,272.29,136.31,270.15,136.46,268Z" fill="#dcca87"/>
    </g>
    <path d="M92.22,99.16c3.4-3.77,9.03-4.46,13.76-3.32,8.44,2,15.48,8.12,19.68,15.58,3.27,5.99,4.54,13.82.53,19.8,3.95,3.91,7.86,7.85,11.8,11.78.57-.57,1.72-1.71,2.3-2.29,2.04,2,4.06,4.03,6.08,6.05,2.07-2.08,4.13-4.16,6.25-6.19.59.61,1.76,1.84,2.35,2.45,3.91-3.95,7.92-7.81,11.72-11.87a16.707,16.707,0,0,1-2.15-12.07c1.99-9.57,9.1-17.71,17.88-21.77,5.43-2.35,12.4-3.11,17.27.87,4.51,3.46,5.14,9.81,3.9,14.99-2.11,8.45-8.28,15.53-15.82,19.68-5.76,3.1-13.28,4.16-18.99.35-3.91,3.94-7.86,7.86-11.78,11.79l2.42,2.48q-3.15,3.075-6.22,6.23c14.65,14.5,28.92,29.37,43.46,43.98-2.16,2.34-4.41,4.58-6.67,6.82-14.65-14.52-29.05-29.28-43.5-44.01-14.65,14.52-29.01,29.33-43.56,43.94-2.31-2.29-4.62-4.59-6.88-6.93q21.84-21.87,43.61-43.81c-2.05-2.08-4.12-4.13-6.17-6.2.62-.62,1.88-1.86,2.5-2.49-3.9-3.92-7.85-7.81-11.72-11.76a16.781,16.781,0,0,1-13.43,1.83A31.774,31.774,0,0,1,89.9,114.92c-1.64-5.2-1.67-11.61,2.32-15.76m4.3.55c-4.31,2.23-5.46,7.75-4.43,12.15,1.95,8.99,8.99,16.53,17.5,19.79,4.34,1.63,9.84,1.75,13.41-1.62,3.62-3.94,3.3-9.92,1.38-14.59a29.233,29.233,0,0,0-15.83-15.79c-3.79-1.47-8.36-2.09-12.03.06m87.9-.11c-7.79,3.27-14.3,10.02-16.64,18.22a13.7,13.7,0,0,0,.78,10.29c1.81,3.31,5.86,4.83,9.48,4.62,6.81-.41,12.82-4.53,17.17-9.55,3.42-4.27,6.2-9.51,6-15.11A9.751,9.751,0,0,0,195.07,99c-3.47-1.2-7.28-.61-10.65.6M137.7,147.69q2,2.025,4.01,4.05,1.335-1.44,2.67-2.91c-1.28-1.33-2.58-2.65-3.87-3.97-.94.94-1.88,1.89-2.81,2.83m14.64-2.96c-1.29,1.39-2.55,2.79-3.84,4.18.88.94,1.77,1.88,2.67,2.81q2.025-2.055,4.07-4.11c-.97-.96-1.94-1.92-2.9-2.88m-8.63,8.96c.92.94,1.84,1.89,2.76,2.84q1.35-1.455,2.67-2.91c-.91-.89-1.81-1.79-2.72-2.68-.9.91-1.81,1.83-2.71,2.75m-2.05,1.97c-13.67,13.98-27.6,27.71-41.33,41.63.94.97,1.88,1.93,2.81,2.91q20.52-21,41.35-41.69c-.95-.95-1.89-1.9-2.83-2.85m6.81,2.88c13.9,13.77,27.32,28.02,41.31,41.71.9-.93,1.8-1.85,2.7-2.77-13.56-13.47-26.7-27.36-40.3-40.78C150.8,154.85,149.59,157.89,148.47,158.54Z" fill="#fff"/>
  </g>
</svg>
