<svg xmlns="http://www.w3.org/2000/svg" viewBox="0 0 197.013 168.002">
  <g>
    <path d="M51.72,0h1.7a5.593,5.593,0,0,1,2.83,3.8c-1.76,2.92-4.56,5.05-6.65,7.74C33.77,29.82,24.49,53.73,24.61,77.97c.01,9.42.69,19.49,6.19,27.5,3.97-5.94,11.1-8.91,18.06-9.17,9.38-1,19.62.57,26.95,6.91,7.14,5.71,11.06,14.7,11.72,23.69.97,9.78-1.11,20.34-7.7,27.92-6.78,8.5-17.79,12.28-28.3,13.18H46.07c-11.53.1-23.29-4.39-30.79-13.35C3.25,140.92.36,121.85,0,104.21V99.97A114.848,114.848,0,0,1,6.05,64.92c4.93-14.94,13.61-28.29,23.17-40.66C36.16,15.69,43.42,7.27,51.72,0Z" fill="#fff"/>
    <path d="M160.88,0h1.96a10.173,10.173,0,0,1,2.91,3.94c-13.4,13.61-24.05,30.28-28.67,48.95a101.674,101.674,0,0,0-2.65,36.19,35.937,35.937,0,0,0,5.63,16.4c4.11-6.2,11.63-9.06,18.83-9.23,9.08-.89,18.92.78,26.04,6.84,7.22,5.69,11.19,14.75,11.86,23.79.94,9.63-1.01,20.02-7.39,27.56-6.76,8.78-18.01,12.68-28.71,13.56h-5.48c-10.33-.01-20.91-3.48-28.31-10.88-8.72-8.34-13.35-19.99-15.62-31.64-4.57-25.49-1.64-52.67,10.52-75.74C131.74,31.03,145.41,14.39,160.88,0Z" fill="#fff"/>
  </g>
</svg>
