<svg xmlns="http://www.w3.org/2000/svg" viewBox="0 0 480.104 184.02">
  <g>
    <path d="M59.027,1.46c.49-1.4,2.1-1.17,3.25-1.46.69,4.84-1.13,9.47-2.44,14.02-6.82,22.12-14.66,43.9-21.51,66.01,4.44-2.99,8.69-6.25,13.06-9.34a460.841,460.841,0,0,1,51.1-31.07,206.584,206.584,0,0,1,28.44-12.48c5.37-1.75,11.15-3.1,16.79-2,3.21.65,6.49,3.33,6.06,6.91-.78,5.2-4.73,9.23-8.51,12.57-1.96,1.48-5.21,3.75-7.34,1.36,2.78-5.8,11-8.97,10.14-16.26-6.84-.89-13.53,1.3-19.83,3.68-11,4.42-21.57,9.81-32.13,15.18-20.14,10.85-39.01,23.93-57.3,37.63-6.61,4.21-8.02,12.38-11.08,19.02-1.23,3.91-4.42,8.52-1.88,12.5a41.1,41.1,0,0,0,24.93,14.71c12.24,2.07,24.67-.63,36.37-4.2,5.68-1.79,11.22-4.03,17.02-5.46a38.31,38.31,0,0,1,8.69-19.59c2.17-2.47,6.66-4.63,9.33-1.7,2.3,1.86,1.87,5.25.58,7.58-2.7,4.32-6.63,8.67-12.16,8.56-1.11,2.95-2.56,6.78-.02,9.43,1.1,1.44,2.95.37,4.36.1,9.84-3.51,16.71-12.28,26.46-15.91,1.08-1.93,1.34-5.56,4.27-5.19a3.711,3.711,0,0,1,.8,2.93c-.36,6.04-2.68,11.86-2.35,17.97,3.99-2.83,6.49-7.16,9.46-10.94,5.85-7.65,11.33-15.6,17.48-23.02.8,1,2.06,1.78,2.33,3.11-.87,3.69-2.98,7.03-3.23,10.9,2.79-.4,5.45-1.86,8.29-1.68,2.33.37,1.22,3.49-.23,4.35-3.9,2.31-9.28,3.03-13.07.09-6.66,6.7-11.38,15.04-17.94,21.82-1.62,1.96-4.22,2.21-6.57,2.42-3.22-5.33-1.15-11.79-.35-17.51-7.08,5.52-14.28,11.1-22.46,14.9-4.72,2.35-11.8,1.47-13.62-4.15-17.17,7.74-36.48,12.91-55.37,9.63-10.82-1.79-20.2-8.16-27.47-16.14-6.1,15.67-12.59,31.34-15.91,47.89-.39,2.73-1.13,5.61-.34,8.32,1.22,1.56,2.54,3.06,2.95,5.07-2.53.8-6.53,1.25-7.41-2.06-1.47-5.61-.21-11.51.91-17.08,3.66-14.51,9.01-28.52,14.56-42.4,2.46-6.03.19-12.94,3.05-18.84,2.45-5.59,7.11-9.75,9.97-15.09,2.72-4.9,4.55-10.22,6.42-15.48C41.967,52.75,48.2,34.36,54.1,15.88c1.6-4.81,2.5-9.92,4.93-14.42m54.33,110.8c2.23-1.44,5.94-3.57,4.73-6.75C115.207,106.34,114.2,109.71,113.357,112.26Z" fill="#aaa"/>
    <path d="M370.227,29.62c1.73-3.36,2.49-7.39,5.42-9.99.67.18,2.02.56,2.7.74.03,4.35-1.37,8.52-2.35,12.7-7.05,26.5-14.59,52.96-25.11,78.32-7.75,18.85-15.9,37.53-23.51,56.43,4.63-3.05,8.85-6.72,13.71-9.43,10-5.67,20.79-9.78,31.64-13.48,14.03-4.87,28.93-6.22,43.61-7.81.36.56,1.08,1.67,1.44,2.23-1.35,1.35-2.81,2.79-4.87,2.74a201.708,201.708,0,0,0-49.62,10.84,101.7,101.7,0,0,0-35.65,22.12c-3.07,2.95-5.63,6.42-9.06,8.99h-.77c-3.34-1.03-1.1-4.18-.41-6.33,10.55-24.79,21.32-49.5,31.36-74.5a512.39,512.39,0,0,0,18.47-56.95,34.235,34.235,0,0,1-3.57,3.03c-2.79.17-2.52-3.13-1.55-4.84C364.447,39.3,367.987,34.81,370.227,29.62Z" fill="#aaa"/>
    <path d="M186.587,94.02c-.21-2.17,2.28-2.99,4.01-2.32,1.49,1.32.61,3.22.31,4.84C189.307,96.38,186.337,96.37,186.587,94.02Z" fill="#aaa"/>
    <path d="M402.747,111.04c.91-4.82,1.35-10.21,4.84-13.98,2.79.09,2.2,3.11,2.04,5.04-1.31,8.76-3.94,17.5-2.98,26.44a18.887,18.887,0,0,0,3.42-3.02c5.76-7.58,9.4-16.54,15.28-24.05,1.48-1.77,3.41-3.88,5.99-3.3,1.82.88,1.61,3.14,1.45,4.84-1.02,7.37-4.86,14.19-4.76,21.74,5.68-3.1,8.52-9.8,14.7-12.12,1.08,3.1-.79,5.61-2.44,8.03.86-.93,2.59-1.33,2.88-2.71,1.52-7.27,5.96-14.7,13.04-17.66,3.55-1.42,7.06,2.32,6.89,5.76-.13,3.44-1.6,6.63-2.78,9.8,6.6-1.96,12.98-4.68,19.72-6.17a12.165,12.165,0,0,1-.47,4.8,113.988,113.988,0,0,0-23.36,9.28c-4.14,2.08-5.93,6.77-9.7,9.29-2.68,1.79-6.72,1.42-8.64-1.3-2.36-2.45-1.14-5.97-.39-8.81a27.213,27.213,0,0,1-8.13,6.94c-2.27.64-5.09-.24-5.91-2.62-1.95-4.78.53-9.78,1.16-14.57-5.71,6.17-7.89,15.26-15.06,20.16-2.93,2.16-7.53-.35-7.84-3.83-.71-6,.31-12.03,1.05-17.98m45.55,9.49a9.89,9.89,0,0,0,4.37-3.47c2.27-3.48,4.72-7.34,4.29-11.69-4.94,3.28-8.65,9.16-8.66,15.16m-4.27,2.71c-2.26,1.39-2.35,4.34-2.62,6.67,2.63-.83,4.4-2.94,5.99-5.07A33.428,33.428,0,0,0,444.027,123.24Z" fill="#aaa"/>
    <path d="M234.857,103.29a3.976,3.976,0,0,1,4.43-3.17c.35,7.88-2.12,15.52-3.13,23.27,3.93-4.94,8.06-10.64,14.44-12.43,3.47-.87,4.22,3.2,4.83,5.63.84,3.96,3.47,8.79,8.16,8.44,6.16-1.17,10.31-6.36,14.57-10.52,1.02-.56,2.11-2.88,3.37-1.42,2.18,1.14.92,4.01-.37,5.37a66.9,66.9,0,0,1-11.51,9.72c-4.04,2.27-9.44,2.83-13.49.28-3.8-2.99-4.91-7.94-6.4-12.29-5.29,3.82-8.4,9.63-12.23,14.74-1.69,1.98-3.87,4.71-6.82,3.92-1.45-2.31-.53-5.14-.36-7.66C231.587,119.17,232.567,111.07,234.857,103.29Z" fill="#aaa"/>
    <path d="M181.257,111.12c.87-2.93,1.6-6.42,4.37-8.17,2.55-.5,2.72,2.11,2.75,3.92-2.66,3.8-2.65,8.6-3.38,13.01-.76,4.26.45,9.92,5.02,11.51,5.51,1.68,11.41-.16,16.4-2.64,7.59-3.67,13.37-9.97,19.7-15.35,1.34-.93,3.12-2.65,4.79-1.34,1.7,2.05-.39,3.98-1.74,5.48-8.71,8.97-19.12,17.15-31.6,19.79-6.92,1.7-15.3-2.02-17.12-9.25C179.307,122.48,179.987,116.64,181.257,111.12Z" fill="#aaa"/>
  </g>
</svg>
